<?xml version="1.0" encoding="utf-8"?>
<!-- Generator: Adobe Illustrator 25.2.1, SVG Export Plug-In . SVG Version: 6.00 Build 0)  -->
<svg version="1.1" id="Ebene_1" xmlns="http://www.w3.org/2000/svg" xmlns:xlink="http://www.w3.org/1999/xlink" x="0px" y="0px"
	 width="37.6px" height="37px" viewBox="0 0 37.6 37" style="enable-background:new 0 0 37.6 37;" xml:space="preserve">
<style type="text/css">
	.st0{fill:#FFFFFF;}
</style>
<g>
	<path class="st0" d="M0,0v37.6h37.6V0H0z M7,31.7H5.2v-7.8H7V31.7z M14,31.7H8.5v-7.8h1.7v6.4H14V31.7z M17.1,31.7h-1.7v-7.8h1.7
		V31.7z M23.9,31.7L23.3,30h-2.9l-0.6,1.7h-1.7l3-7.8h1.8l2.9,7.8H23.9z M29.9,31.9c-1.7,0-3.4-0.9-3.3-2.8l0,0l0,0l0,0h1.7
		c0,1,0.8,1.4,1.7,1.4c0.6,0,1.5-0.2,1.5-1s-1.2-1-2.3-1.3C28,28,26.8,27.5,26.8,26c0-1.6,1.5-2.4,2.9-2.4c1.6,0,3.1,0.7,3.1,2.5
		h-1.7c-0.1-0.9-0.7-1.2-1.5-1.2c-0.5,0-1.2,0.2-1.2,0.9c0,0.6,0.4,0.7,2.3,1.2c0.6,0.1,2.3,0.5,2.3,2.3
		C33.1,30.8,32,31.9,29.9,31.9z"/>
	<polygon class="st0" points="21.9,25.8 20.9,28.7 22.9,28.7 	"/>
</g>
</svg>
