<svg id="Ebene_1" data-name="Ebene 1" xmlns="http://www.w3.org/2000/svg" width="37" height="37" viewBox="0 0 37 37"><defs><style>.cls-1,.cls-2{fill:#fff;}.cls-2{fill-rule:evenodd;}</style></defs><path class="cls-1" d="M36.3,1V36H1.3V1h35m1-1H.3V37h37V0Z" transform="translate(-0.3)"/><polygon class="cls-1" points="5.16 31.18 6.86 31.18 6.86 23.49 5.16 23.49 5.16 31.18"/><polygon class="cls-1" points="8.34 31.18 13.78 31.18 13.78 29.76 10.03 29.76 10.03 23.49 8.34 23.49 8.34 31.18"/><polygon class="cls-1" points="15.14 31.18 16.83 31.18 16.83 23.49 15.14 23.49 15.14 31.18"/><path class="cls-2" d="M18.07,31.18h1.72l.6-1.71h2.88l.58,1.71h1.76l-2.88-7.69H21l-2.92,7.69Zm3.76-5.79h0l1,2.82h-2l1-2.82Z" transform="translate(-0.3)"/><path class="cls-1" d="M26.43,28.63c0,1.9,1.57,2.74,3.27,2.74,2.09,0,3.2-1.06,3.2-2.47,0-1.75-1.72-2.1-2.28-2.24-1.93-.5-2.3-.57-2.3-1.17s.63-.87,1.17-.87c.81,0,1.46.24,1.52,1.17h1.64c0-1.78-1.48-2.48-3.09-2.48-1.39,0-2.87.75-2.87,2.33s1.15,1.88,2.29,2.18,2.29.44,2.29,1.27-.91,1-1.5,1c-.91,0-1.7-.4-1.7-1.42Z" transform="translate(-0.3)"/></svg>