<?xml version="1.0" encoding="utf-8"?>
<!-- Generator: Adobe Illustrator 25.2.1, SVG Export Plug-In . SVG Version: 6.00 Build 0)  -->
<svg version="1.1" id="Ebene_1" xmlns="http://www.w3.org/2000/svg" xmlns:xlink="http://www.w3.org/1999/xlink" x="0px" y="0px"
	 width="188.8px" height="37px" viewBox="0 0 188.8 37" style="enable-background:new 0 0 188.8 37;" xml:space="preserve">
<style type="text/css">
	.st0{fill:#FFFFFF;}
</style>
<g id="Ebene_2_1_">
	<g id="Ebene_1-2">
		<polygon class="st0" points="79.8,14 71.2,9 62.5,14 62.5,24.1 71.2,29.1 79.8,24.1 		"/>
		<polygon class="st0" points="82.8,27.4 72.6,33.4 72.6,37 85.9,29.2 		"/>
		<path class="st0" d="M69.7,33.4l-11.6-6.8V13.1L55,11.3v16.2c0,0.6,0.3,1.1,0.8,1.4l14,8.1L69.7,33.4L69.7,33.4z"/>
		<path class="st0" d="M59.5,10.7L71.2,4l11.7,6.7L86,8.9L72,0.8c-0.5-0.3-1.1-0.3-1.6,0l-14,8.1L59.5,10.7z"/>
		<path class="st0" d="M132.6,10.9h2.9V6.4h4V11h3.8v3h-3.8v7.5c0,2.4,0.5,3,2.3,3c0.4,0,0.8-0.1,1.2-0.2v3.1
			c-0.8,0.2-1.6,0.2-2.5,0.2c-2.1,0-3.5-0.5-4.3-1.6c-0.7-0.8-0.8-1.5-0.8-4.1v-8h-2.7L132.6,10.9z"/>
		<path class="st0" d="M159.5,12.7c-1.3-1.5-3.2-2.2-5.5-2.2c-1.5,0-3,0.4-4.3,1.1c-1.2,0.7-2.3,1.8-2.9,3.1c-0.7,1.4-1.1,3-1,4.6
			c0,2.7,0.8,4.8,2.4,6.4c1.6,1.6,3.8,2.3,6.5,2.3c1.2,0,2.4-0.2,3.6-0.6c1.1-0.3,2.1-0.9,2.9-1.5l-1.2-3c-1.4,1.2-3.2,1.8-5.1,1.8
			c-1.5,0-2.6-0.4-3.4-1.1c-0.8-0.7-1.2-1.9-1.4-3.3h11.4V19C161.5,16.2,160.8,14.2,159.5,12.7z M154.1,13.5c1-0.1,2,0.3,2.7,1.1
			c0.6,0.7,1,1.7,1,3.1h-7.7c0.1-1.1,0.5-2.2,1.3-3.1C152.1,13.8,153.1,13.4,154.1,13.5L154.1,13.5z"/>
		<path class="st0" d="M103.2,28.1c-4.8,0.1-8.8-3.8-8.8-8.7c0-0.1,0-0.1,0-0.2v-0.1c-0.1-4.9,3.8-8.9,8.7-8.9c0.1,0,0.1,0,0.2,0
			c2.8,0,4.9,0.9,6.8,2.9l0.1,0.1l-2.6,2.7l-0.1-0.1c-1.1-1.1-2.3-2.1-4.3-2.1c-2.7,0-4.8,2.3-4.8,5.3v0.1c0,3,2.1,5.3,5,5.3
			c1.6,0,2.9-0.6,4.3-2.1l0.1-0.1l2.5,2.4l-0.1,0.1C108.8,26.5,106.8,28.1,103.2,28.1z"/>
		<path class="st0" d="M125.4,10.9h3.8v16.6h-3.8v-1.7c-1.6,1.5-3.3,2.2-5.1,2.2c-2.2,0.1-4.2-0.9-5.7-2.5c-1.5-1.7-2.2-3.8-2.2-6.3
			s0.7-4.6,2.2-6.2c1.4-1.6,3.4-2.5,5.6-2.5c1.9,0,3.7,0.8,5.2,2.4V10.9z M116.3,19.2c-0.1,1.4,0.4,2.8,1.3,3.9c0.8,1,2,1.5,3.3,1.5
			s2.6-0.5,3.4-1.5c0.9-1.1,1.4-2.4,1.3-3.8c0.1-1.4-0.4-2.8-1.3-3.8s-2.1-1.5-3.4-1.5s-2.5,0.5-3.3,1.5
			C116.7,16.5,116.3,17.8,116.3,19.2z"/>
	</g>
</g>
<g>
	<path class="st0" d="M0,0v37.6h37.6V0H0z M7,31.7H5.2v-7.8H7V31.7z M14,31.7H8.5v-7.8h1.7v6.4H14V31.7z M17.1,31.7h-1.7v-7.8h1.7
		V31.7z M23.9,31.7l-0.6-1.7h-2.9l-0.6,1.7h-1.7l3-7.8h1.8l2.9,7.8H23.9z M29.9,31.9c-1.7,0-3.4-0.9-3.3-2.8l0,0v0c0,0,0,0,0,0h1.7
		c0,1,0.8,1.4,1.7,1.4c0.6,0,1.5-0.2,1.5-1c0-0.8-1.2-1-2.3-1.3C28,28,26.8,27.5,26.8,26c0-1.6,1.5-2.4,2.9-2.4
		c1.6,0,3.1,0.7,3.1,2.5h-1.7c-0.1-0.9-0.7-1.2-1.5-1.2c-0.5,0-1.2,0.2-1.2,0.9c0,0.6,0.4,0.7,2.3,1.2c0.6,0.1,2.3,0.5,2.3,2.3
		C33.1,30.8,32,31.9,29.9,31.9z"/>
	<polygon class="st0" points="21.9,25.8 20.9,28.7 22.9,28.7 21.9,25.8 	"/>
</g>
</svg>
