<?xml version="1.0" encoding="utf-8"?>
<!-- Generator: Adobe Illustrator 25.0.0, SVG Export Plug-In . SVG Version: 6.00 Build 0)  -->
<svg version="1.1" xmlns="http://www.w3.org/2000/svg" xmlns:xlink="http://www.w3.org/1999/xlink" x="0px" y="0px" width="32px"
	 height="32px" viewBox="0 0 32 32" style="enable-background:new 0 0 32 32;" xml:space="preserve">
<style type="text/css">
	.st0{fill:none;stroke:#212121;stroke-linejoin:round;stroke-miterlimit:10;}
	.st1{fill:none;stroke:#212121;stroke-miterlimit:10;}
	.st2{fill:none;stroke:#212121;stroke-linecap:square;stroke-linejoin:round;stroke-miterlimit:10;}
	.st3{fill:none;stroke:#212121;stroke-linecap:round;stroke-linejoin:round;stroke-miterlimit:10;}
	.st4{fill:none;stroke:#212121;stroke-linecap:round;stroke-miterlimit:10;}
	.st5{fill:#212121;}
	.st6{fill:none;stroke:#212121;stroke-linecap:square;stroke-linejoin:round;}
	.st7{fill:none;stroke:#212121;stroke-width:0.9701;stroke-linejoin:round;stroke-miterlimit:10;}
	.st8{fill:#212121;stroke:#212121;stroke-linejoin:round;stroke-miterlimit:10;}
	.st9{display:none;fill:none;stroke:#212121;stroke-miterlimit:10;}
	.st10{fill:none;stroke:#212121;stroke-linecap:square;stroke-miterlimit:10;}
	.st11{fill:none;stroke:#212121;stroke-width:1.0026;stroke-miterlimit:10;}
	.st12{fill:#212121;stroke:#212121;stroke-miterlimit:10;}
	.st13{fill:none;stroke:#212121;stroke-width:1.0305;stroke-linejoin:round;stroke-miterlimit:10;}
	.st14{fill:none;stroke:#212121;stroke-width:0.907;stroke-linejoin:round;stroke-miterlimit:10;}
	.st15{fill:#FFFFFF;}
	.st16{fill:#333333;}
	.st17{fill:none;stroke:#FFFFFF;stroke-linejoin:round;stroke-miterlimit:10;}
	.st18{clip-path:url(#SVGID_3_);}
	.st19{clip-path:url(#SVGID_4_);fill:none;stroke:#FFFFFF;stroke-linejoin:round;stroke-miterlimit:10;}
	.st20{fill:none;stroke:#FFFFFF;stroke-linecap:round;stroke-linejoin:round;stroke-miterlimit:10;}
	.st21{fill:none;stroke:#333333;stroke-linejoin:round;stroke-miterlimit:10;}
</style>
<g id="cat-pg">
</g>
<g id="Guidelines">
	<g>
		<path class="st1" d="M24.5,9L24.5,9c1.4,0,2.5,1.1,2.5,2.5v13c0,1.4-1.1,2.5-2.5,2.5h-8c-1.4,0-2.5-1.1-2.5-2.5v-13
			c0-1.4,1.1-2.5,2.5-2.5h3"/>
		<path class="st1" d="M11.5,23L11.5,23C10.1,23,9,21.9,9,20.5v-13C9,6.1,10.1,5,11.5,5h8C20.9,5,22,6.1,22,7.5v13
			c0,1.4-1.1,2.5-2.5,2.5h-3"/>
	</g>
</g>
</svg>
