<?xml version="1.0" encoding="utf-8"?>
<!-- Generator: Adobe Illustrator 25.0.0, SVG Export Plug-In . SVG Version: 6.00 Build 0)  -->
<svg version="1.1" xmlns="http://www.w3.org/2000/svg" xmlns:xlink="http://www.w3.org/1999/xlink" x="0px" y="0px" width="32px"
	 height="32px" viewBox="0 0 32 32" style="enable-background:new 0 0 32 32;" xml:space="preserve">
<style type="text/css">
	.st0{fill:none;stroke:#212121;stroke-linejoin:round;stroke-miterlimit:10;}
	.st1{fill:none;stroke:#212121;stroke-miterlimit:10;}
	.st2{fill:none;stroke:#212121;stroke-linecap:square;stroke-linejoin:round;stroke-miterlimit:10;}
	.st3{fill:none;stroke:#212121;stroke-linecap:round;stroke-linejoin:round;stroke-miterlimit:10;}
	.st4{fill:none;stroke:#212121;stroke-linecap:round;stroke-miterlimit:10;}
	.st5{fill:#212121;}
	.st6{fill:none;stroke:#212121;stroke-linecap:square;stroke-linejoin:round;}
	.st7{fill:none;stroke:#212121;stroke-width:0.9701;stroke-linejoin:round;stroke-miterlimit:10;}
	.st8{fill:#212121;stroke:#212121;stroke-linejoin:round;stroke-miterlimit:10;}
	.st9{display:none;fill:none;stroke:#212121;stroke-miterlimit:10;}
	.st10{fill:none;stroke:#212121;stroke-linecap:square;stroke-miterlimit:10;}
	.st11{fill:none;stroke:#212121;stroke-width:1.0026;stroke-miterlimit:10;}
	.st12{fill:#212121;stroke:#212121;stroke-miterlimit:10;}
	.st13{fill:none;stroke:#212121;stroke-width:1.0305;stroke-linejoin:round;stroke-miterlimit:10;}
	.st14{fill:none;stroke:#212121;stroke-width:0.907;stroke-linejoin:round;stroke-miterlimit:10;}
	.st15{fill:#FFFFFF;}
	.st16{fill:#333333;}
	.st17{fill:none;stroke:#FFFFFF;stroke-linejoin:round;stroke-miterlimit:10;}
	.st18{clip-path:url(#SVGID_3_);}
	.st19{clip-path:url(#SVGID_4_);fill:none;stroke:#FFFFFF;stroke-linejoin:round;stroke-miterlimit:10;}
	.st20{fill:none;stroke:#FFFFFF;stroke-linecap:round;stroke-linejoin:round;stroke-miterlimit:10;}
	.st21{fill:none;stroke:#333333;stroke-linejoin:round;stroke-miterlimit:10;}
</style>
<g id="cat-pg">
	<g>
		<path class="st5" d="M15.9,9.9c2.3,0,4.7,1.4,5.6,4.9c0.4-0.1,0.8-0.1,1.2-0.1c2,0,4.7,1,4.7,4.7c0.1,3.4-3.2,4.7-5.1,4.7
			c-1.9,0-10,0-13.5,0c-3.5,0-4.8-3.3-4.4-5.2c0.5-2.2,2.2-3.2,3.8-3.2c0.7,0,1.3,0.2,1.7,0.6c0,0-0.8-2.8,1.9-5
			C13,10.4,14.4,9.9,15.9,9.9 M15.9,8.9c-1.6,0-3.3,0.6-4.5,1.6c-1.8,1.4-2.3,3.1-2.4,4.3c-0.2,0-0.4-0.1-0.7-0.1
			c-1.8,0-4.1,1.2-4.7,4c-0.3,1.4,0.1,3.2,1.1,4.4c1,1.3,2.5,2,4.2,2h13.5c1.3,0,3.2-0.5,4.6-1.9c1-1,1.5-2.3,1.5-3.8
			c-0.1-4.2-3.1-5.7-5.7-5.7c-0.2,0-0.4,0-0.5,0C21.2,10.7,18.8,8.9,15.9,8.9L15.9,8.9z"/>
	</g>
</g>
<g id="Guidelines">
</g>
</svg>
