<?xml version="1.0" encoding="utf-8"?>
<!-- Generator: Adobe Illustrator 25.0.0, SVG Export Plug-In . SVG Version: 6.00 Build 0)  -->
<svg version="1.1" xmlns="http://www.w3.org/2000/svg" xmlns:xlink="http://www.w3.org/1999/xlink" x="0px" y="0px" width="32px"
	 height="32px" viewBox="0 0 32 32" style="enable-background:new 0 0 32 32;" xml:space="preserve">
<style type="text/css">
	.st0{fill:none;stroke:#212121;stroke-linejoin:round;stroke-miterlimit:10;}
	.st1{fill:none;stroke:#212121;stroke-miterlimit:10;}
	.st2{fill:none;stroke:#212121;stroke-linecap:square;stroke-linejoin:round;stroke-miterlimit:10;}
	.st3{fill:none;stroke:#212121;stroke-linecap:round;stroke-linejoin:round;stroke-miterlimit:10;}
	.st4{fill:none;stroke:#212121;stroke-linecap:round;stroke-miterlimit:10;}
	.st5{fill:#212121;}
	.st6{fill:none;stroke:#212121;stroke-linecap:square;stroke-linejoin:round;}
	.st7{fill:none;stroke:#212121;stroke-width:0.9701;stroke-linejoin:round;stroke-miterlimit:10;}
	.st8{fill:#212121;stroke:#212121;stroke-linejoin:round;stroke-miterlimit:10;}
	.st9{display:none;fill:none;stroke:#212121;stroke-miterlimit:10;}
	.st10{fill:none;stroke:#212121;stroke-linecap:square;stroke-miterlimit:10;}
	.st11{fill:none;stroke:#212121;stroke-width:1.0026;stroke-miterlimit:10;}
	.st12{fill:#212121;stroke:#212121;stroke-miterlimit:10;}
	.st13{fill:none;stroke:#212121;stroke-width:1.0305;stroke-linejoin:round;stroke-miterlimit:10;}
	.st14{fill:none;stroke:#212121;stroke-width:0.907;stroke-linejoin:round;stroke-miterlimit:10;}
	.st15{fill:#FFFFFF;}
	.st16{fill:#333333;}
	.st17{fill:none;stroke:#FFFFFF;stroke-linejoin:round;stroke-miterlimit:10;}
	.st18{clip-path:url(#SVGID_3_);}
	.st19{clip-path:url(#SVGID_4_);fill:none;stroke:#FFFFFF;stroke-linejoin:round;stroke-miterlimit:10;}
	.st20{fill:none;stroke:#FFFFFF;stroke-linecap:round;stroke-linejoin:round;stroke-miterlimit:10;}
	.st21{fill:none;stroke:#333333;stroke-linejoin:round;stroke-miterlimit:10;}
</style>
<g id="cat-pg">
	<g>
		<rect x="5" y="6" class="st0" width="22" height="22"/>
		<g>
			<path class="st5" d="M15.9,11c-0.8,0-1.4,0.2-1.9,0.6c-0.4,0.4-0.7,0.9-0.7,1.4c0,0.2,0.1,0.5,0.2,0.7c0.1,0.2,0.3,0.5,0.5,0.7
				c-0.4,0.2-0.7,0.5-0.9,0.9c-0.2,0.3-0.3,0.7-0.3,1.1c0,0.5,0.1,0.9,0.4,1.3c0.3,0.4,0.9,0.9,1.9,1.5c1,0.6,1.5,1,1.7,1.1
				c0.2,0.2,0.2,0.3,0.2,0.5c0,0.2-0.1,0.4-0.2,0.5c-0.2,0.1-0.4,0.2-0.7,0.2c-0.3,0-0.6-0.1-0.8-0.3c-0.2-0.2-0.4-0.5-0.4-0.8
				l-1.7,0.2c0.1,0.7,0.4,1.2,0.9,1.6c0.5,0.4,1.2,0.6,2,0.6c0.9,0,1.5-0.2,2-0.6c0.5-0.4,0.7-0.9,0.7-1.5c0-0.3-0.1-0.6-0.2-0.8
				c-0.1-0.3-0.3-0.5-0.6-0.7c0.4-0.3,0.7-0.6,0.9-0.9c0.2-0.3,0.3-0.7,0.3-1.1c0-0.4-0.1-0.7-0.2-1c-0.2-0.3-0.4-0.6-0.8-0.9
				c-0.2-0.2-0.7-0.5-1.4-1c-0.7-0.5-1.2-0.8-1.3-0.9c-0.2-0.2-0.3-0.4-0.3-0.6c0-0.1,0.1-0.3,0.2-0.4c0.1-0.1,0.3-0.2,0.6-0.2
				c0.3,0,0.5,0.1,0.7,0.2c0.2,0.2,0.3,0.4,0.3,0.7l1.7-0.2c-0.1-0.6-0.4-1.1-0.8-1.5C17.3,11.2,16.7,11,15.9,11L15.9,11z
				 M17.1,18.5l-1.8-1.2c-0.6-0.4-0.8-0.8-0.8-1.2c0-0.2,0.1-0.3,0.2-0.5c0.1-0.2,0.2-0.3,0.4-0.4l1.7,1.2c0.4,0.3,0.7,0.5,0.8,0.7
				c0.1,0.1,0.1,0.3,0.1,0.4c0,0.1,0,0.3-0.1,0.4C17.4,18.2,17.3,18.3,17.1,18.5L17.1,18.5z"/>
		</g>
	</g>
</g>
<g id="Guidelines">
</g>
</svg>
