<?xml version="1.0" encoding="utf-8"?>
<!-- Generator: Adobe Illustrator 25.0.0, SVG Export Plug-In . SVG Version: 6.00 Build 0)  -->
<svg version="1.1" xmlns="http://www.w3.org/2000/svg" xmlns:xlink="http://www.w3.org/1999/xlink" x="0px" y="0px" width="32px"
	 height="32px" viewBox="0 0 32 32" style="enable-background:new 0 0 32 32;" xml:space="preserve">
<style type="text/css">
	.st0{fill:none;stroke:#212121;stroke-linejoin:round;stroke-miterlimit:10;}
	.st1{fill:none;stroke:#212121;stroke-miterlimit:10;}
	.st2{fill:none;stroke:#212121;stroke-linecap:square;stroke-linejoin:round;stroke-miterlimit:10;}
	.st3{fill:none;stroke:#212121;stroke-linecap:round;stroke-linejoin:round;stroke-miterlimit:10;}
	.st4{fill:none;stroke:#212121;stroke-linecap:round;stroke-miterlimit:10;}
	.st5{fill:#212121;}
	.st6{fill:none;stroke:#212121;stroke-linecap:square;stroke-linejoin:round;}
	.st7{fill:none;stroke:#212121;stroke-width:0.9701;stroke-linejoin:round;stroke-miterlimit:10;}
	.st8{fill:#212121;stroke:#212121;stroke-linejoin:round;stroke-miterlimit:10;}
	.st9{display:none;fill:none;stroke:#212121;stroke-miterlimit:10;}
	.st10{fill:none;stroke:#212121;stroke-linecap:square;stroke-miterlimit:10;}
	.st11{fill:none;stroke:#212121;stroke-width:1.0026;stroke-miterlimit:10;}
	.st12{fill:#212121;stroke:#212121;stroke-miterlimit:10;}
	.st13{fill:none;stroke:#212121;stroke-width:1.0305;stroke-linejoin:round;stroke-miterlimit:10;}
	.st14{fill:none;stroke:#212121;stroke-width:0.907;stroke-linejoin:round;stroke-miterlimit:10;}
	.st15{fill:#FFFFFF;}
	.st16{fill:#333333;}
	.st17{fill:none;stroke:#FFFFFF;stroke-linejoin:round;stroke-miterlimit:10;}
	.st18{clip-path:url(#SVGID_3_);}
	.st19{clip-path:url(#SVGID_4_);fill:none;stroke:#FFFFFF;stroke-linejoin:round;stroke-miterlimit:10;}
	.st20{fill:none;stroke:#FFFFFF;stroke-linecap:round;stroke-linejoin:round;stroke-miterlimit:10;}
	.st21{fill:none;stroke:#333333;stroke-linejoin:round;stroke-miterlimit:10;}
</style>
<g id="cat-pg">
	<g>
		<g>
			<ellipse class="st3" cx="16" cy="11.1" rx="2.9" ry="3.2"/>
			<path class="st3" d="M21.5,26.2v-6c0-1.6-1.1-2.8-2.8-3.6h0c-0.2,0.1-0.4,0.2-0.7,0.3c-0.6,0.3-1.3,0.4-2.1,0.4
				c-0.7,0-1.4-0.2-2.1-0.4l0,0c-0.2-0.1-0.5-0.2-0.7-0.3h0c-1.6,0.8-2.8,2-2.8,3.6v6H21.5z"/>
		</g>
	</g>
	<g>
		<g>
			<ellipse class="st2" cx="25.4" cy="14.8" rx="1.9" ry="2.1"/>
			<path class="st2" d="M24.5,24.7H29v-3.9c0-1-0.7-1.9-1.8-2.4h0c-0.1,0.1-0.3,0.2-0.4,0.2c-0.4,0.2-0.9,0.3-1.4,0.3
				c-0.5,0-0.9-0.1-1.3-0.3"/>
		</g>
	</g>
	<g>
		<g>
			<ellipse class="st2" cx="6.6" cy="14.8" rx="1.9" ry="2.1"/>
			<path class="st2" d="M7.9,19.4c-0.4,0.2-0.8,0.3-1.3,0.3c-0.5,0-0.9-0.1-1.4-0.3c-0.2-0.1-0.3-0.1-0.4-0.2h0
				C3.7,19.7,3,20.5,3,21.6v3.1h4.5"/>
		</g>
	</g>
</g>
<g id="Guidelines">
</g>
</svg>
