<?xml version="1.0" encoding="utf-8"?>
<!-- Generator: Adobe Illustrator 25.0.0, SVG Export Plug-In . SVG Version: 6.00 Build 0)  -->
<svg version="1.1" xmlns="http://www.w3.org/2000/svg" xmlns:xlink="http://www.w3.org/1999/xlink" x="0px" y="0px" width="32px"
	 height="32px" viewBox="0 0 32 32" style="enable-background:new 0 0 32 32;" xml:space="preserve">
<style type="text/css">
	.st0{fill:none;stroke:#212121;stroke-linejoin:round;stroke-miterlimit:10;}
	.st1{fill:none;stroke:#212121;stroke-miterlimit:10;}
	.st2{fill:none;stroke:#212121;stroke-linecap:square;stroke-linejoin:round;stroke-miterlimit:10;}
	.st3{fill:none;stroke:#212121;stroke-linecap:round;stroke-linejoin:round;stroke-miterlimit:10;}
	.st4{fill:none;stroke:#212121;stroke-linecap:round;stroke-miterlimit:10;}
	.st5{fill:#212121;}
	.st6{fill:none;stroke:#212121;stroke-linecap:square;stroke-linejoin:round;}
	.st7{fill:none;stroke:#212121;stroke-width:0.9701;stroke-linejoin:round;stroke-miterlimit:10;}
	.st8{fill:#212121;stroke:#212121;stroke-linejoin:round;stroke-miterlimit:10;}
	.st9{display:none;fill:none;stroke:#212121;stroke-miterlimit:10;}
	.st10{fill:none;stroke:#212121;stroke-linecap:square;stroke-miterlimit:10;}
	.st11{fill:none;stroke:#212121;stroke-width:1.0026;stroke-miterlimit:10;}
	.st12{fill:#212121;stroke:#212121;stroke-miterlimit:10;}
	.st13{fill:none;stroke:#212121;stroke-width:1.0305;stroke-linejoin:round;stroke-miterlimit:10;}
	.st14{fill:none;stroke:#212121;stroke-width:0.907;stroke-linejoin:round;stroke-miterlimit:10;}
	.st15{fill:#FFFFFF;}
	.st16{fill:#333333;}
	.st17{fill:none;stroke:#FFFFFF;stroke-linejoin:round;stroke-miterlimit:10;}
	.st18{clip-path:url(#SVGID_3_);}
	.st19{clip-path:url(#SVGID_4_);fill:none;stroke:#FFFFFF;stroke-linejoin:round;stroke-miterlimit:10;}
	.st20{fill:none;stroke:#FFFFFF;stroke-linecap:round;stroke-linejoin:round;stroke-miterlimit:10;}
	.st21{fill:none;stroke:#333333;stroke-linejoin:round;stroke-miterlimit:10;}
</style>
<g id="cat-pg">
	<g>
		<g>
			<g>
				<polyline class="st0" points="10,14.5 7,8 4,14.5 				"/>
				<line class="st0" x1="5.1" y1="12.1" x2="8.9" y2="12.1"/>
			</g>
			<line class="st0" x1="5" y1="18" x2="9" y2="18"/>
			<polyline class="st0" points="4.5,22 9.5,22 4.5,28 9.5,28 			"/>
		</g>
		<g>
			<g>
				<polyline class="st0" points="18.1,6 14.5,6 14.5,30 24.5,30 24.5,14.5 				"/>
				<line class="st1" x1="14.5" y1="10" x2="18" y2="10"/>
				<line class="st1" x1="14.5" y1="14" x2="21.9" y2="14"/>
			</g>
			<g>
				<ellipse class="st1" cx="24" cy="8" rx="4" ry="4"/>
				<path class="st0" d="M24,4c0,0,1.5,0.6,1.5,4S24,12,24,12"/>
				<path class="st0" d="M28,8c0,0-0.6,1.5-4,1.5S20,8,20,8"/>
			</g>
		</g>
	</g>
</g>
<g id="Guidelines">
</g>
</svg>
