<?xml version="1.0" encoding="utf-8"?>
<!-- Generator: Adobe Illustrator 25.0.0, SVG Export Plug-In . SVG Version: 6.00 Build 0)  -->
<svg version="1.1" xmlns="http://www.w3.org/2000/svg" xmlns:xlink="http://www.w3.org/1999/xlink" x="0px" y="0px" width="32px"
	 height="32px" viewBox="0 0 32 32" style="enable-background:new 0 0 32 32;" xml:space="preserve">
<style type="text/css">
	.st0{fill:none;stroke:#212121;stroke-linejoin:round;stroke-miterlimit:10;}
	.st1{fill:none;stroke:#212121;stroke-miterlimit:10;}
	.st2{fill:none;stroke:#212121;stroke-linecap:square;stroke-linejoin:round;stroke-miterlimit:10;}
	.st3{fill:none;stroke:#212121;stroke-linecap:round;stroke-linejoin:round;stroke-miterlimit:10;}
	.st4{fill:none;stroke:#212121;stroke-linecap:round;stroke-miterlimit:10;}
	.st5{fill:#212121;}
	.st6{fill:none;stroke:#212121;stroke-linecap:square;stroke-linejoin:round;}
	.st7{fill:none;stroke:#212121;stroke-width:0.9701;stroke-linejoin:round;stroke-miterlimit:10;}
	.st8{fill:#212121;stroke:#212121;stroke-linejoin:round;stroke-miterlimit:10;}
	.st9{display:none;fill:none;stroke:#212121;stroke-miterlimit:10;}
	.st10{fill:none;stroke:#212121;stroke-linecap:square;stroke-miterlimit:10;}
	.st11{fill:none;stroke:#212121;stroke-width:1.0026;stroke-miterlimit:10;}
	.st12{fill:#212121;stroke:#212121;stroke-miterlimit:10;}
	.st13{fill:none;stroke:#212121;stroke-width:1.0305;stroke-linejoin:round;stroke-miterlimit:10;}
	.st14{fill:none;stroke:#212121;stroke-width:0.907;stroke-linejoin:round;stroke-miterlimit:10;}
	.st15{fill:#FFFFFF;}
	.st16{fill:#333333;}
	.st17{fill:none;stroke:#FFFFFF;stroke-linejoin:round;stroke-miterlimit:10;}
	.st18{clip-path:url(#SVGID_3_);}
	.st19{clip-path:url(#SVGID_4_);fill:none;stroke:#FFFFFF;stroke-linejoin:round;stroke-miterlimit:10;}
	.st20{fill:none;stroke:#FFFFFF;stroke-linecap:round;stroke-linejoin:round;stroke-miterlimit:10;}
	.st21{fill:none;stroke:#333333;stroke-linejoin:round;stroke-miterlimit:10;}
</style>
<g id="cat-pg">
	<g>
		<g>
			<path class="st5" d="M12.5,9.3C12.6,9.3,12.6,9.3,12.5,9.3l0.4,0.4h0.4c1.5,0,3.4,0.2,5.2,1.8c1,0.9,2,1.2,3.3,1.2
				c0.2,0,0.5,0,0.7,0c-0.4,1.3-2.7,2.3-4.7,2.5l-0.1,0l-0.1,0c-0.5,0.1-0.9,0.2-1.3,0.2c-1.5,0.3-2,0.4-3.3,0.9l-0.5,0.2V9.7
				L12.5,9.3 M12.5,8.2c-0.8,0-0.9,0.3-0.9,0.7v0.8V24c0,0.2,0.1,0.4,0.9,0.4c0.8,0,0.9-0.1,0.9-0.4v-6.8c1.6-0.6,1.9-0.6,4.4-1.1
				c2.4-0.2,5.2-1.4,5.6-3.4c0.1-0.7,0.1-1.1-0.3-1.1c-0.4,0-0.9,0.1-1.4,0.1c-0.8,0-1.6-0.2-2.6-1c-1.9-1.7-4-2-5.9-2
				C13.1,8.4,13.1,8.2,12.5,8.2L12.5,8.2z"/>
		</g>
		<path class="st1" d="M10.1,23.2c-0.9,0.2-1.6,0.6-1.6,1.2c0,1,2.1,1.5,4,1.5s4-0.5,4-1.5c0-0.6-0.7-1-1.6-1.2"/>
	</g>
</g>
<g id="Guidelines">
</g>
</svg>
