<?xml version="1.0" encoding="utf-8"?>
<!-- Generator: Adobe Illustrator 25.0.0, SVG Export Plug-In . SVG Version: 6.00 Build 0)  -->
<svg version="1.1" xmlns="http://www.w3.org/2000/svg" xmlns:xlink="http://www.w3.org/1999/xlink" x="0px" y="0px" width="32px"
	 height="32px" viewBox="0 0 32 32" style="enable-background:new 0 0 32 32;" xml:space="preserve">
<style type="text/css">
	.st0{fill:none;stroke:#212121;stroke-linejoin:round;stroke-miterlimit:10;}
	.st1{fill:none;stroke:#212121;stroke-miterlimit:10;}
	.st2{fill:none;stroke:#212121;stroke-linecap:square;stroke-linejoin:round;stroke-miterlimit:10;}
	.st3{fill:none;stroke:#212121;stroke-linecap:round;stroke-linejoin:round;stroke-miterlimit:10;}
	.st4{fill:none;stroke:#212121;stroke-linecap:round;stroke-miterlimit:10;}
	.st5{fill:#212121;}
	.st6{fill:none;stroke:#212121;stroke-linecap:square;stroke-linejoin:round;}
	.st7{fill:none;stroke:#212121;stroke-width:0.9701;stroke-linejoin:round;stroke-miterlimit:10;}
	.st8{fill:#212121;stroke:#212121;stroke-linejoin:round;stroke-miterlimit:10;}
	.st9{display:none;fill:none;stroke:#212121;stroke-miterlimit:10;}
	.st10{fill:none;stroke:#212121;stroke-linecap:square;stroke-miterlimit:10;}
	.st11{fill:none;stroke:#212121;stroke-width:1.0026;stroke-miterlimit:10;}
	.st12{fill:#212121;stroke:#212121;stroke-miterlimit:10;}
	.st13{fill:none;stroke:#212121;stroke-width:1.0305;stroke-linejoin:round;stroke-miterlimit:10;}
	.st14{fill:none;stroke:#212121;stroke-width:0.907;stroke-linejoin:round;stroke-miterlimit:10;}
	.st15{fill:#FFFFFF;}
	.st16{fill:#333333;}
	.st17{fill:none;stroke:#FFFFFF;stroke-linejoin:round;stroke-miterlimit:10;}
	.st18{clip-path:url(#SVGID_3_);}
	.st19{clip-path:url(#SVGID_4_);fill:none;stroke:#FFFFFF;stroke-linejoin:round;stroke-miterlimit:10;}
	.st20{fill:none;stroke:#FFFFFF;stroke-linecap:round;stroke-linejoin:round;stroke-miterlimit:10;}
	.st21{fill:none;stroke:#333333;stroke-linejoin:round;stroke-miterlimit:10;}
</style>
<g id="cat-pg">
	<g>
		<g>
			<polyline class="st0" points="9.2,7.5 9.2,12.5 4.2,12.5 			"/>
			<polyline class="st2" points="21.2,17 21.2,28.5 4.2,28.5 4.2,12.5 9.2,7.5 13.2,7.5 			"/>
		</g>
		<g>
			<path class="st5" d="M21.2,5.5c1.3,0,2.7,0.8,3.2,2.8c0.2,0,0.4-0.1,0.7-0.1c1.1,0,2.6,0.6,2.7,2.6c0,1.9-1.8,2.6-2.9,2.6
				s-5.7,0-7.6,0s-2.7-1.8-2.5-2.9c0.3-1.2,1.3-1.8,2.1-1.8c0.4,0,0.7,0.1,1,0.3c0,0-0.5-1.6,1.1-2.8C19.6,5.8,20.4,5.5,21.2,5.5
				 M21.2,4.5c-1,0-2,0.4-2.8,1c-0.9,0.7-1.3,1.5-1.4,2.3c-1.2,0-2.7,0.8-3.1,2.6c-0.2,0.9,0.1,2.1,0.7,2.9c0.7,0.8,1.6,1.3,2.7,1.3
				h7.6c0.8,0,2-0.3,2.9-1.2c0.6-0.7,1-1.5,1-2.5c0-2.5-1.9-3.6-3.7-3.6c0,0,0,0,0,0C24.4,5.5,23,4.5,21.2,4.5L21.2,4.5z"/>
		</g>
	</g>
</g>
<g id="Guidelines">
</g>
</svg>
