<svg xmlns="http://www.w3.org/2000/svg" width="32" height="32" viewBox="0 0 32 32">
  <g id="Guidelines">
    <path d="M2,19v6H30V19a3,3,0,0,1,0-6V7H2v6a3,3,0,0,1,0,6Z" fill="none" stroke="#333" stroke-linejoin="round"/>
    <g>
      <path d="M10,15a1,1,0,0,1,0,2,1,1,0,0,1,0-2m0-1a2,2,0,0,0,0,4,2,2,0,0,0,0-4Z" fill="#333"/>
      <path d="M16,15a1,1,0,1,1-1,1,.94.94,0,0,1,1-1m0-1a2,2,0,1,0,2,2,1.92,1.92,0,0,0-2-2Z" fill="#333"/>
      <path d="M22,15a1,1,0,1,1-1,1,.94.94,0,0,1,1-1m0-1a2,2,0,1,0,2,2,1.92,1.92,0,0,0-2-2Z" fill="#333"/>
    </g>
  </g>
</svg>
