<svg xmlns="http://www.w3.org/2000/svg" width="32" height="32" viewBox="0 0 32 32">
  <g id="Guidelines">
    <g>
      <line x1="9.5" y1="18.78" x2="14.33" y2="17.49" fill="none" stroke="#333" stroke-linecap="round" stroke-linejoin="round"/>
      <line x1="10.02" y1="20.71" x2="17.74" y2="18.64" fill="none" stroke="#333" stroke-linecap="round" stroke-linejoin="round"/>
      <path d="M17.57,8.33,3.08,12.21A1.51,1.51,0,0,0,2,14.05L2.8,17a2.5,2.5,0,0,1,1.29,4.83l.78,2.9A1.49,1.49,0,0,0,6.7,25.74l14.49-3.88" fill="none" stroke="#333" stroke-linecap="square" stroke-linejoin="round"/>
      <path d="M27,20.3l1.93-.51A1.51,1.51,0,0,0,30,18l-.78-2.9a2.5,2.5,0,1,1-1.29-4.83l-.78-2.9A1.49,1.49,0,0,0,25.3,6.26l-1.94.52" fill="none" stroke="#333" stroke-linecap="square" stroke-linejoin="round"/>
      <g>
        <path d="M20.79,7l-.91.25.86,3.17a.46.46,0,0,0,.45.35h0l.08,0a.46.46,0,0,0,.33-.57L20.79,7Z" fill="#333"/>
        <path d="M21.83,12.17l-.12,0a.47.47,0,0,0-.33.58l.89,3.35a.48.48,0,0,0,.46.35h.12a.47.47,0,0,0,.33-.58l-.9-3.35a.46.46,0,0,0-.45-.35Z" fill="#333"/>
        <path d="M23.37,17.92l-.12,0a.46.46,0,0,0-.33.57l.85,3.18.9-.25-.85-3.17a.46.46,0,0,0-.45-.35Z" fill="#333"/>
      </g>
    </g>
  </g>
</svg>
