<?xml version="1.0" encoding="utf-8"?>
<!-- Generator: Adobe Illustrator 25.2.1, SVG Export Plug-In . SVG Version: 6.00 Build 0)  -->
<svg version="1.1" id="Ebene_1" xmlns="http://www.w3.org/2000/svg" xmlns:xlink="http://www.w3.org/1999/xlink" x="0px" y="0px"
	 width="107.9px" height="37px" viewBox="0 0 107.9 37" style="enable-background:new 0 0 107.9 37;" xml:space="preserve">
<style type="text/css">
	.st0{fill:#FFFFFF;}
</style>
<g id="Ebene_2_1_">
	<g id="Ebene_1-2">
		<polygon class="st0" points="25.2,13.7 16.4,8.6 7.6,13.7 7.6,23.9 16.4,28.9 25.2,23.9 		"/>
		<polygon class="st0" points="28.2,27.3 17.8,33.3 17.8,36.9 31.4,29.1 		"/>
		<path class="st0" d="M15,33.3L3.2,26.4V12.8L0,11v16.4c0,0.6,0.3,1.1,0.8,1.4L15,36.9V33.3z"/>
		<path class="st0" d="M4.6,10.3l11.8-6.8l11.8,6.8l3.1-1.8L17.2,0.3c-0.5-0.3-1.1-0.3-1.6,0L1.4,8.5L4.6,10.3z"/>
		<path class="st0" d="M78.6,10.5h2.9V5.9h4.1v4.6h3.8v3.2h-3.8v7.6c0,2.4,0.5,3.1,2.3,3.1c0.4,0,0.8-0.1,1.2-0.2v3.2
			c-0.8,0.2-1.7,0.3-2.5,0.2c-2.1,0-3.6-0.5-4.4-1.6c-0.7-0.9-0.8-1.6-0.8-4.2v-8.1h-2.7L78.6,10.5z"/>
		<path class="st0" d="M105.8,12.3c-1.4-1.5-3.2-2.3-5.6-2.3c-1.5,0-3,0.4-4.3,1.1c-1.3,0.7-2.3,1.8-2.9,3.1c-0.7,1.4-1.1,3-1,4.6
			c0,2.7,0.8,4.9,2.4,6.5c1.6,1.6,3.8,2.4,6.6,2.4c1.2,0,2.4-0.2,3.6-0.6c1.1-0.3,2.1-0.9,3-1.6l-1.3-3c-1.5,1.2-3.3,1.8-5.2,1.8
			c-1.5,0-2.7-0.4-3.5-1.1c-0.8-0.7-1.3-1.9-1.4-3.4h11.6v-1.3C107.9,15.9,107.2,13.8,105.8,12.3z M100.4,13.1c1-0.1,2,0.3,2.7,1.1
			c0.6,0.7,1,1.8,1,3.1h-7.8c0.1-1.2,0.5-2.3,1.3-3.1C98.3,13.5,99.3,13.1,100.4,13.1L100.4,13.1z"/>
		<path class="st0" d="M48.8,28c-4.9,0.1-8.9-3.9-9-8.8c0-0.1,0-0.1,0-0.2V19c-0.1-4.9,3.9-9,8.8-9.1c0.1,0,0.1,0,0.2,0
			c2.9,0,5,0.9,6.9,3l0.1,0.1l-2.6,2.8l-0.1-0.1c-1.1-1.1-2.3-2.1-4.3-2.1c-2.7,0-4.9,2.4-4.9,5.4V19c0,3.1,2.2,5.4,5,5.4
			c1.6,0,2.9-0.6,4.4-2.1l0.1-0.1l2.5,2.5l-0.1,0.1C54.5,26.3,52.5,28,48.8,28z"/>
		<path class="st0" d="M71.3,10.5h3.9v16.8h-3.9v-1.7c-1.6,1.5-3.3,2.2-5.2,2.2c-2.2,0.1-4.3-0.9-5.8-2.5c-1.5-1.7-2.3-3.8-2.3-6.4
			c0-2.5,0.8-4.6,2.3-6.3c1.4-1.6,3.5-2.6,5.7-2.5c2,0,3.7,0.8,5.3,2.4V10.5z M62.1,18.9c-0.1,1.4,0.4,2.8,1.3,3.9
			c0.8,1,2.1,1.6,3.3,1.5c1.3,0.1,2.6-0.5,3.5-1.5c0.9-1.1,1.4-2.5,1.3-3.9c0.1-1.4-0.4-2.8-1.3-3.9c-0.9-1-2.1-1.5-3.4-1.5
			c-1.3,0-2.5,0.5-3.3,1.5C62.6,16.1,62.1,17.5,62.1,18.9z"/>
	</g>
</g>
</svg>
