<svg id="Ebene_1" data-name="Ebene 1" xmlns="http://www.w3.org/2000/svg" width="66" height="37" viewBox="0 0 66 37"><defs><style>.cls-1{fill:#fff;}.cls-2{fill:none;stroke:#fff;stroke-miterlimit:10;}</style></defs><polyline class="cls-1" points="15.57 23.77 24.34 28.84 33.11 23.77 33.11 13.64 24.34 8.58 15.57 13.64"/><path class="cls-1" d="M12.29,10.41l12.05-7,12.23,7.07L39.7,8.71,25.12.29a1.55,1.55,0,0,0-1.56,0L9.16,8.6Z"/><path class="cls-1" d="M23.13,33.26l-12-6.93V12.45L8,10.64v16.6a1.56,1.56,0,0,0,.78,1.35l14.35,8.29Z"/><polygon class="cls-1" points="36.36 27.02 25.48 33.3 25.48 36.92 39.49 28.82 36.36 27.02"/><line class="cls-2" x1="65.5" x2="65.5" y2="37"/></svg>