<?xml version="1.0" encoding="utf-8"?>
<!-- Generator: Adobe Illustrator 25.0.0, SVG Export Plug-In . SVG Version: 6.00 Build 0)  -->
<svg version="1.1" xmlns="http://www.w3.org/2000/svg" xmlns:xlink="http://www.w3.org/1999/xlink" x="0px" y="0px" width="32px"
	 height="32px" viewBox="0 0 32 32" style="enable-background:new 0 0 32 32;" xml:space="preserve">
<style type="text/css">
	.st0{fill:none;stroke:#212121;stroke-linejoin:round;stroke-miterlimit:10;}
	.st1{fill:none;stroke:#212121;stroke-miterlimit:10;}
	.st2{fill:none;stroke:#212121;stroke-linecap:square;stroke-linejoin:round;stroke-miterlimit:10;}
	.st3{fill:none;stroke:#212121;stroke-linecap:round;stroke-linejoin:round;stroke-miterlimit:10;}
	.st4{fill:none;stroke:#212121;stroke-linecap:round;stroke-miterlimit:10;}
	.st5{fill:#212121;}
	.st6{fill:none;stroke:#212121;stroke-linecap:square;stroke-linejoin:round;}
	.st7{fill:none;stroke:#212121;stroke-width:0.9701;stroke-linejoin:round;stroke-miterlimit:10;}
	.st8{fill:#212121;stroke:#212121;stroke-linejoin:round;stroke-miterlimit:10;}
	.st9{display:none;fill:none;stroke:#212121;stroke-miterlimit:10;}
	.st10{fill:none;stroke:#212121;stroke-linecap:square;stroke-miterlimit:10;}
	.st11{fill:none;stroke:#212121;stroke-width:1.0026;stroke-miterlimit:10;}
	.st12{fill:#212121;stroke:#212121;stroke-miterlimit:10;}
	.st13{fill:none;stroke:#212121;stroke-width:1.0305;stroke-linejoin:round;stroke-miterlimit:10;}
	.st14{fill:none;stroke:#212121;stroke-width:0.907;stroke-linejoin:round;stroke-miterlimit:10;}
	.st15{fill:#FFFFFF;}
	.st16{fill:#333333;}
	.st17{fill:none;stroke:#FFFFFF;stroke-linejoin:round;stroke-miterlimit:10;}
	.st18{clip-path:url(#SVGID_3_);}
	.st19{clip-path:url(#SVGID_4_);fill:none;stroke:#FFFFFF;stroke-linejoin:round;stroke-miterlimit:10;}
	.st20{fill:none;stroke:#FFFFFF;stroke-linecap:round;stroke-linejoin:round;stroke-miterlimit:10;}
	.st21{fill:none;stroke:#333333;stroke-linejoin:round;stroke-miterlimit:10;}
</style>
<g id="cat-pg">
	<g>
		<path class="st0" d="M13.6,22.1c0,3.1,3.3,5.6,7.4,5.6c1.5,0,2.9-0.3,4.1-0.9l3.4,2.8L27.3,25c0.7-0.9,1.1-1.9,1.1-2.9
			c0-3.1-3.3-5.6-7.4-5.6S13.6,19,13.6,22.1"/>
		<path class="st2" d="M11.1,20c-1.3-0.4-2.5-1.1-3.5-1.7L4,21l1.2-4.9C4.4,15,4,13.8,4,12.5l0,0C4,8.4,8.5,5,14,5s10,3.4,10,7.5
			c0,0.4-0.1,0.9-0.2,1.4"/>
	</g>
</g>
<g id="Guidelines">
</g>
</svg>
