<?xml version="1.0" encoding="utf-8"?>
<!-- Generator: Adobe Illustrator 25.0.0, SVG Export Plug-In . SVG Version: 6.00 Build 0)  -->
<svg version="1.1" xmlns="http://www.w3.org/2000/svg" xmlns:xlink="http://www.w3.org/1999/xlink" x="0px" y="0px" width="32px"
	 height="32px" viewBox="0 0 32 32" style="enable-background:new 0 0 32 32;" xml:space="preserve">
<style type="text/css">
	.st0{fill:none;stroke:#212121;stroke-linejoin:round;stroke-miterlimit:10;}
	.st1{fill:none;stroke:#212121;stroke-miterlimit:10;}
	.st2{fill:none;stroke:#212121;stroke-linecap:square;stroke-linejoin:round;stroke-miterlimit:10;}
	.st3{fill:none;stroke:#212121;stroke-linecap:round;stroke-linejoin:round;stroke-miterlimit:10;}
	.st4{fill:none;stroke:#212121;stroke-linecap:round;stroke-miterlimit:10;}
	.st5{fill:#212121;}
	.st6{fill:none;stroke:#212121;stroke-linecap:square;stroke-linejoin:round;}
	.st7{fill:none;stroke:#212121;stroke-width:0.9701;stroke-linejoin:round;stroke-miterlimit:10;}
	.st8{fill:#212121;stroke:#212121;stroke-linejoin:round;stroke-miterlimit:10;}
	.st9{display:none;fill:none;stroke:#212121;stroke-miterlimit:10;}
	.st10{fill:none;stroke:#212121;stroke-linecap:square;stroke-miterlimit:10;}
	.st11{fill:none;stroke:#212121;stroke-width:1.0026;stroke-miterlimit:10;}
	.st12{fill:#212121;stroke:#212121;stroke-miterlimit:10;}
	.st13{fill:none;stroke:#212121;stroke-width:1.0305;stroke-linejoin:round;stroke-miterlimit:10;}
	.st14{fill:none;stroke:#212121;stroke-width:0.907;stroke-linejoin:round;stroke-miterlimit:10;}
	.st15{fill:#FFFFFF;}
	.st16{fill:#333333;}
	.st17{fill:none;stroke:#FFFFFF;stroke-linejoin:round;stroke-miterlimit:10;}
	.st18{clip-path:url(#SVGID_3_);}
	.st19{clip-path:url(#SVGID_4_);fill:none;stroke:#FFFFFF;stroke-linejoin:round;stroke-miterlimit:10;}
	.st20{fill:none;stroke:#FFFFFF;stroke-linecap:round;stroke-linejoin:round;stroke-miterlimit:10;}
	.st21{fill:none;stroke:#333333;stroke-linejoin:round;stroke-miterlimit:10;}
</style>
<g id="cat-pg">
	<g>
		<path class="st0" d="M7.4,4.5c-0.6,0-0.9,0.3-0.5,0.8c0.3,0.4,1.9,2.5,1.9,2.5s0,1.2-0.9,1.9c-1,0.7-2.1,0.4-2.1,0.4
			S4.2,8.1,3.9,7.6C3.3,6.8,2.9,7.6,2.8,8.8V9c0,1,0.3,2.4,1.1,3.4c1,1.4,3.4,2.1,5.5,1.1l11.4,10.7c-0.1,0.9,0.2,1.8,0.9,2.4
			c1.2,1.1,3,1,4.1-0.1c1.1-1.2,1-3-0.1-4.1c-0.7-0.7-1.6-0.9-2.5-0.7L11.9,11c0.6-1.5,0.4-3.3-0.4-4.3C10.5,5.3,8.5,4.5,7.4,4.5
			L7.4,4.5z"/>
		<polyline class="st0" points="19.5,14.8 24.1,10.5 26.1,9.7 27.9,6.9 26.8,5.8 24,7.4 22.9,9.5 18.3,13.7 		"/>
		<path class="st0" d="M11.5,19l-6.7,5.7c-0.9,0.8-0.9,2.1-0.2,2.9C5,28,5.5,28.2,6,28.2c0.6,0,1.1-0.2,1.5-0.6l6.3-6.4"/>
	</g>
</g>
<g id="Guidelines">
</g>
</svg>
