<?xml version="1.0" encoding="utf-8"?>
<!-- Generator: Adobe Illustrator 25.0.0, SVG Export Plug-In . SVG Version: 6.00 Build 0)  -->
<svg version="1.1" xmlns="http://www.w3.org/2000/svg" xmlns:xlink="http://www.w3.org/1999/xlink" x="0px" y="0px" width="32px"
	 height="32px" viewBox="0 0 32 32" style="enable-background:new 0 0 32 32;" xml:space="preserve">
<style type="text/css">
	.st0{fill:none;stroke:#212121;stroke-linejoin:round;stroke-miterlimit:10;}
	.st1{fill:none;stroke:#212121;stroke-miterlimit:10;}
	.st2{fill:none;stroke:#212121;stroke-linecap:square;stroke-linejoin:round;stroke-miterlimit:10;}
	.st3{fill:none;stroke:#212121;stroke-linecap:round;stroke-linejoin:round;stroke-miterlimit:10;}
	.st4{fill:none;stroke:#212121;stroke-linecap:round;stroke-miterlimit:10;}
	.st5{fill:#212121;}
	.st6{fill:none;stroke:#212121;stroke-linecap:square;stroke-linejoin:round;}
	.st7{fill:none;stroke:#212121;stroke-width:0.9701;stroke-linejoin:round;stroke-miterlimit:10;}
	.st8{fill:#212121;stroke:#212121;stroke-linejoin:round;stroke-miterlimit:10;}
	.st9{display:none;fill:none;stroke:#212121;stroke-miterlimit:10;}
	.st10{fill:none;stroke:#212121;stroke-linecap:square;stroke-miterlimit:10;}
	.st11{fill:none;stroke:#212121;stroke-width:1.0026;stroke-miterlimit:10;}
	.st12{fill:#212121;stroke:#212121;stroke-miterlimit:10;}
	.st13{fill:none;stroke:#212121;stroke-width:1.0305;stroke-linejoin:round;stroke-miterlimit:10;}
	.st14{fill:none;stroke:#212121;stroke-width:0.907;stroke-linejoin:round;stroke-miterlimit:10;}
	.st15{fill:#FFFFFF;}
	.st16{fill:#333333;}
	.st17{fill:none;stroke:#FFFFFF;stroke-linejoin:round;stroke-miterlimit:10;}
	.st18{clip-path:url(#SVGID_3_);}
	.st19{clip-path:url(#SVGID_4_);fill:none;stroke:#FFFFFF;stroke-linejoin:round;stroke-miterlimit:10;}
	.st20{fill:none;stroke:#FFFFFF;stroke-linecap:round;stroke-linejoin:round;stroke-miterlimit:10;}
	.st21{fill:none;stroke:#333333;stroke-linejoin:round;stroke-miterlimit:10;}
</style>
<g id="cat-pg">
</g>
<g id="Guidelines">
	
		<ellipse id="ellipse15" transform="matrix(0.9177 -0.3972 0.3972 0.9177 -5.072 7.6648)" class="st12" cx="16" cy="16.1" rx="9.4" ry="4.4"/>
	<ellipse id="circle17" class="st12" cx="26.4" cy="8.5" rx="1.8" ry="1.8"/>
	<ellipse id="circle19" class="st12" cx="17.8" cy="7" rx="1.8" ry="1.8"/>
	<ellipse id="circle21" class="st12" cx="27.9" cy="16.2" rx="1.8" ry="1.8"/>
	<ellipse id="circle23" class="st12" cx="22.6" cy="21.7" rx="1.8" ry="1.8"/>
	<ellipse id="circle25" class="st12" cx="14.5" cy="25" rx="1.8" ry="1.8"/>
	<ellipse id="circle27" class="st12" cx="5.3" cy="23.3" rx="1.8" ry="1.8"/>
	<ellipse id="circle29" class="st12" cx="4.1" cy="15.6" rx="1.8" ry="1.8"/>
	<g id="circle33">
		<path class="st5" d="M10,8.7c0.7,0,1.3,0.6,1.3,1.3s-0.6,1.3-1.3,1.3S8.7,10.7,8.7,10S9.3,8.7,10,8.7 M10,8.2C9,8.2,8.2,9,8.2,10
			S9,11.7,10,11.7s1.8-0.8,1.8-1.8S11,8.2,10,8.2L10,8.2z"/>
	</g>
</g>
</svg>
