<?xml version="1.0" encoding="utf-8"?>
<!-- Generator: Adobe Illustrator 25.0.0, SVG Export Plug-In . SVG Version: 6.00 Build 0)  -->
<svg version="1.1" xmlns="http://www.w3.org/2000/svg" xmlns:xlink="http://www.w3.org/1999/xlink" x="0px" y="0px" width="32px"
	 height="32px" viewBox="0 0 32 32" style="enable-background:new 0 0 32 32;" xml:space="preserve">
<style type="text/css">
	.st0{fill:none;stroke:#212121;stroke-linejoin:round;stroke-miterlimit:10;}
	.st1{fill:none;stroke:#212121;stroke-miterlimit:10;}
	.st2{fill:none;stroke:#212121;stroke-linecap:square;stroke-linejoin:round;stroke-miterlimit:10;}
	.st3{fill:none;stroke:#212121;stroke-linecap:round;stroke-linejoin:round;stroke-miterlimit:10;}
	.st4{fill:none;stroke:#212121;stroke-linecap:round;stroke-miterlimit:10;}
	.st5{fill:#212121;}
	.st6{fill:none;stroke:#212121;stroke-linecap:square;stroke-linejoin:round;}
	.st7{fill:none;stroke:#212121;stroke-width:0.9701;stroke-linejoin:round;stroke-miterlimit:10;}
	.st8{fill:#212121;stroke:#212121;stroke-linejoin:round;stroke-miterlimit:10;}
	.st9{display:none;fill:none;stroke:#212121;stroke-miterlimit:10;}
	.st10{fill:none;stroke:#212121;stroke-linecap:square;stroke-miterlimit:10;}
	.st11{fill:none;stroke:#212121;stroke-width:1.0026;stroke-miterlimit:10;}
	.st12{fill:#212121;stroke:#212121;stroke-miterlimit:10;}
	.st13{fill:none;stroke:#212121;stroke-width:1.0305;stroke-linejoin:round;stroke-miterlimit:10;}
	.st14{fill:none;stroke:#212121;stroke-width:0.907;stroke-linejoin:round;stroke-miterlimit:10;}
	.st15{fill:#FFFFFF;}
	.st16{fill:#333333;}
	.st17{fill:none;stroke:#FFFFFF;stroke-linejoin:round;stroke-miterlimit:10;}
	.st18{clip-path:url(#SVGID_3_);}
	.st19{clip-path:url(#SVGID_4_);fill:none;stroke:#FFFFFF;stroke-linejoin:round;stroke-miterlimit:10;}
	.st20{fill:none;stroke:#FFFFFF;stroke-linecap:round;stroke-linejoin:round;stroke-miterlimit:10;}
	.st21{fill:none;stroke:#333333;stroke-linejoin:round;stroke-miterlimit:10;}
</style>
<g id="cat-pg">
	<g>
		<path class="st5" d="M10.9,5.3c0.1,0,0.2,0,0.2,0c0,0,0,0,0,0c0.1,0.1,0.1,0.2,0.2,0.3l0.3,0.3h0.4c2.2,0,5,0.3,7.6,2.7
			c1.7,1.5,3.3,1.7,4.3,1.7c0.4,0,0.9,0,1.2-0.1c0.1,0,0.2,0,0.3,0c0,0.1,0,0.2-0.1,0.4c-0.5,2.2-4,3.7-7.1,4l-0.1,0l-0.1,0
			c-0.7,0.1-1.3,0.2-1.8,0.3c-2.1,0.4-2.8,0.5-4.7,1.2l-0.7,0.2V17v9.2c-0.1,0-0.2,0-0.3,0c-0.1,0-0.2,0-0.3,0V6.5V5.3
			C10.7,5.3,10.8,5.3,10.9,5.3 M10.9,4.3c-1.1,0-1.3,0.4-1.3,1v1.2v20.2c0,0.3,0.2,0.5,1.3,0.5c1.1,0,1.3-0.2,1.3-0.5V17
			c2.2-0.8,2.7-0.8,6.3-1.5c3.4-0.3,7.4-2,8-4.8c0.2-1,0.1-1.6-0.4-1.6c-0.6,0-1.3,0.1-2,0.1c-1.1,0-2.3-0.2-3.7-1.4
			c-2.7-2.4-5.6-2.9-8.3-2.9C11.8,4.6,11.8,4.3,10.9,4.3L10.9,4.3z"/>
	</g>
	<path class="st1" d="M7.6,26c-1.3,0.3-2.2,0.9-2.2,1.6c0,1.4,2.9,2,5.5,2s5.5-0.6,5.5-2c0-0.8-0.9-1.3-2.2-1.6"/>
</g>
<g id="Guidelines">
</g>
</svg>
