<svg xmlns="http://www.w3.org/2000/svg" width="32" height="32" viewBox="0 0 32 32">
  <g id="Guidelines">
    <g>
      <path d="M15.27,18v-.18a.67.67,0,0,1,.18-.45,9.17,9.17,0,0,0,2.31-5.62,4.72,4.72,0,0,0-9.44,0,9.17,9.17,0,0,0,2.31,5.62.64.64,0,0,1,.19.45V18a1.69,1.69,0,0,1-1.27,1.64c-3.07.8-5.21,2.62-5.21,4.73,0,1.58,3.9,2.87,8.7,2.87s8.71-1.29,8.71-2.87c0-2.11-2.15-3.93-5.22-4.73A1.69,1.69,0,0,1,15.27,18Z" fill="none" stroke="#333" stroke-miterlimit="10"/>
      <path d="M24.21,24.38c2.09-.52,3.45-1.35,3.45-2.29,0-2.11-2.14-3.92-5.21-4.72a1.71,1.71,0,0,1-1.27-1.65v-.18a.61.61,0,0,1,.19-.44,9.2,9.2,0,0,0,2.31-5.63,4.71,4.71,0,0,0-7.17-4" fill="none" stroke="#333" stroke-miterlimit="10"/>
    </g>
  </g>
</svg>
