<?xml version="1.0" encoding="utf-8"?>
<!-- Generator: Adobe Illustrator 24.0.2, SVG Export Plug-In . SVG Version: 6.00 Build 0)  -->
<svg version="1.1" xmlns="http://www.w3.org/2000/svg" xmlns:xlink="http://www.w3.org/1999/xlink" x="0px" y="0px" width="32px"
	 height="32px" viewBox="0 0 32 32" style="enable-background:new 0 0 32 32;" xml:space="preserve">
<style type="text/css">
	.st0{fill:none;stroke:#323232;stroke-linejoin:round;stroke-miterlimit:10;}
	.st1{fill:none;stroke:#323232;stroke-miterlimit:10;}
	.st2{opacity:0.4;fill:#6EA03C;}
	.st3{fill:#333333;}
	.st4{fill:none;stroke:#323232;stroke-linecap:round;stroke-linejoin:round;stroke-miterlimit:10;}
	.st5{fill:none;stroke:#FFFFFF;stroke-width:1.45;stroke-linejoin:round;stroke-miterlimit:10;}
</style>
<g id="cat-pg">
	<g>
		<g>
			<polyline class="st1" points="19.6,9.1 16.8,8.1 15.2,5.4 12,6.2 11.8,9.5 9.6,11.4 			"/>
			<polyline class="st1" points="11.8,9.5 9.6,11.4 6.4,11.4 5.5,14.6 8.2,16.4 8.8,19.2 			"/>
			<polyline class="st1" points="8.2,16.4 8.8,19.2 7.2,22 9.5,24.4 12.4,22.9 15.2,23.9 			"/>
			<polyline class="st1" points="12.4,22.9 15.2,23.9 16.8,26.6 20,25.8 20.2,22.5 22.4,20.6 			"/>
			<polyline class="st1" points="20.2,22.5 22.4,20.6 25.6,20.6 26.5,17.4 23.8,15.6 23.2,12.8 			"/>
			<polyline class="st1" points="23.8,15.6 23.2,12.8 24.8,10 22.5,7.6 19.6,9.1 16.8,8.1 			"/>
			<circle class="st1" cx="16" cy="16" r="3.3"/>
		</g>
	</g>
</g>
<g id="Guidelines">
</g>
</svg>
