<?xml version="1.0" encoding="utf-8"?>
<!-- Generator: Adobe Illustrator 24.0.2, SVG Export Plug-In . SVG Version: 6.00 Build 0)  -->
<svg version="1.1" xmlns="http://www.w3.org/2000/svg" xmlns:xlink="http://www.w3.org/1999/xlink" x="0px" y="0px" width="32px"
	 height="32px" viewBox="0 0 32 32" style="enable-background:new 0 0 32 32;" xml:space="preserve">
<style type="text/css">
	.st0{fill:none;stroke:#323232;stroke-linejoin:round;stroke-miterlimit:10;}
	.st1{fill:none;stroke:#323232;stroke-miterlimit:10;}
	.st2{opacity:0.4;fill:#6EA03C;}
	.st3{fill:#333333;}
	.st4{fill:none;stroke:#323232;stroke-linecap:round;stroke-linejoin:round;stroke-miterlimit:10;}
	.st5{fill:none;stroke:#FFFFFF;stroke-width:1.45;stroke-linejoin:round;stroke-miterlimit:10;}
</style>
<g id="cat-pg">
	<g>
		<g>
			<g>
				<polyline class="st0" points="19.3,20.5 28,20.5 28,4.5 6,4.5 6,6 				"/>
			</g>
		</g>
		<g>
			<ellipse class="st4" cx="9.8" cy="11.7" rx="3.8" ry="4.2"/>
			<path class="st4" d="M12.7,17.5L12.7,17.5c-0.2,0.1-0.5,0.3-0.7,0.4c-0.7,0.3-1.4,0.5-2.2,0.5c-0.8,0-1.5-0.2-2.2-0.5l0,0
				c-0.2-0.1-0.5-0.2-0.7-0.4h0C5.2,18.3,4,19.7,4,21.3v6.2h11.7v-6.2C15.7,19.7,14.5,18.3,12.7,17.5z"/>
		</g>
	</g>
</g>
<g id="Guidelines">
</g>
</svg>
