<?xml version="1.0" encoding="utf-8"?>
<!-- Generator: Adobe Illustrator 24.0.2, SVG Export Plug-In . SVG Version: 6.00 Build 0)  -->
<svg version="1.1" xmlns="http://www.w3.org/2000/svg" xmlns:xlink="http://www.w3.org/1999/xlink" x="0px" y="0px" width="32px"
	 height="32px" viewBox="0 0 32 32" style="enable-background:new 0 0 32 32;" xml:space="preserve">
<style type="text/css">
	.st0{fill:none;stroke:#323232;stroke-linejoin:round;stroke-miterlimit:10;}
	.st1{fill:none;stroke:#323232;stroke-miterlimit:10;}
	.st2{opacity:0.4;fill:#6EA03C;}
	.st3{fill:#333333;}
	.st4{fill:none;stroke:#323232;stroke-linecap:round;stroke-linejoin:round;stroke-miterlimit:10;}
	.st5{fill:none;stroke:#FFFFFF;stroke-width:1.45;stroke-linejoin:round;stroke-miterlimit:10;}
</style>
<g id="cat-pg">
	<g>
		<path class="st0" d="M13.3,20.8c0,3.1,3.3,5.6,7.4,5.6c1.5,0,2.9-0.3,4.1-0.9l3.4,2.8l-1.1-4.5c0.7-0.9,1.1-1.9,1.1-2.9
			c0-3.1-3.3-5.6-7.4-5.6S13.3,17.7,13.3,20.8"/>
		<path class="st0" d="M10.2,18.5c-1-0.4-2-1-2.8-1.5l-3.6,2.7L5,14.8c-0.8-1.1-1.2-2.3-1.2-3.6l0,0c0-4.1,4.5-7.5,10-7.5
			s10,3.4,10,7.5c0,0.2,0,0.4,0,0.7c0,0.1,0,0.3-0.1,0.4"/>
	</g>
</g>
<g id="Guidelines">
</g>
</svg>
