<?xml version="1.0" encoding="utf-8"?>
<!-- Generator: Adobe Illustrator 25.0.0, SVG Export Plug-In . SVG Version: 6.00 Build 0)  -->
<svg version="1.1" xmlns="http://www.w3.org/2000/svg" xmlns:xlink="http://www.w3.org/1999/xlink" x="0px" y="0px" width="32px"
	 height="32px" viewBox="0 0 32 32" style="enable-background:new 0 0 32 32;" xml:space="preserve">
<style type="text/css">
	.st0{fill:none;stroke:#212121;stroke-linejoin:round;stroke-miterlimit:10;}
	.st1{fill:none;stroke:#212121;stroke-miterlimit:10;}
	.st2{fill:none;stroke:#212121;stroke-linecap:square;stroke-linejoin:round;stroke-miterlimit:10;}
	.st3{fill:none;stroke:#212121;stroke-linecap:round;stroke-linejoin:round;stroke-miterlimit:10;}
	.st4{fill:none;stroke:#212121;stroke-linecap:round;stroke-miterlimit:10;}
	.st5{fill:#212121;}
	.st6{fill:none;stroke:#212121;stroke-linecap:square;stroke-linejoin:round;}
	.st7{fill:none;stroke:#212121;stroke-width:0.9701;stroke-linejoin:round;stroke-miterlimit:10;}
	.st8{fill:#212121;stroke:#212121;stroke-linejoin:round;stroke-miterlimit:10;}
	.st9{display:none;fill:none;stroke:#212121;stroke-miterlimit:10;}
	.st10{fill:none;stroke:#212121;stroke-linecap:square;stroke-miterlimit:10;}
	.st11{fill:none;stroke:#212121;stroke-width:1.0026;stroke-miterlimit:10;}
	.st12{fill:#212121;stroke:#212121;stroke-miterlimit:10;}
	.st13{fill:none;stroke:#212121;stroke-width:1.0305;stroke-linejoin:round;stroke-miterlimit:10;}
	.st14{fill:none;stroke:#212121;stroke-width:0.907;stroke-linejoin:round;stroke-miterlimit:10;}
	.st15{fill:#FFFFFF;}
	.st16{fill:#333333;}
	.st17{fill:none;stroke:#FFFFFF;stroke-linejoin:round;stroke-miterlimit:10;}
	.st18{clip-path:url(#SVGID_3_);}
	.st19{clip-path:url(#SVGID_4_);fill:none;stroke:#FFFFFF;stroke-linejoin:round;stroke-miterlimit:10;}
	.st20{fill:none;stroke:#FFFFFF;stroke-linecap:round;stroke-linejoin:round;stroke-miterlimit:10;}
	.st21{fill:none;stroke:#333333;stroke-linejoin:round;stroke-miterlimit:10;}
</style>
<g id="cat-pg">
	<g>
		<path class="st1" d="M16.1,8.5H7C6.2,8.5,5.5,7.8,5.5,7v0"/>
		<path class="st1" d="M17.1,5.5H7C6.2,5.5,5.5,6.2,5.5,7v21.5c0,0.6,0.4,1,1,1h16c0.6,0,1-0.4,1-1V14.9"/>
		<line class="st10" x1="9" y1="19.5" x2="14.1" y2="19.5"/>
		<line class="st10" x1="9" y1="22.5" x2="17.5" y2="22.5"/>
	</g>
	<g>
		<ellipse class="st1" cx="22.5" cy="8.5" rx="4" ry="4"/>
		<path class="st0" d="M22.5,4.5c0,0,1.5,0.6,1.5,4s-1.5,4-1.5,4"/>
		<path class="st0" d="M26.5,8.5c0,0-0.6,1.5-4,1.5s-4-1.5-4-1.5"/>
	</g>
</g>
<g id="Guidelines">
</g>
</svg>
