<?xml version="1.0" encoding="utf-8"?>
<!-- Generator: Adobe Illustrator 22.1.0, SVG Export Plug-In . SVG Version: 6.00 Build 0)  -->
<svg version="1.1" xmlns="http://www.w3.org/2000/svg" xmlns:xlink="http://www.w3.org/1999/xlink" x="0px" y="0px" width="32px"
	 height="32px" viewBox="0 0 32 32" style="enable-background:new 0 0 32 32;" xml:space="preserve">
<style type="text/css">
	.st0{fill:none;stroke:#000000;stroke-linejoin:round;stroke-miterlimit:10;}
	.st1{fill:none;stroke:#000000;stroke-linecap:square;stroke-linejoin:round;stroke-miterlimit:10;}
	.st2{fill:none;stroke:#000000;stroke-miterlimit:10;}
	.st3{fill:none;stroke:#000000;stroke-linecap:square;stroke-miterlimit:10;}
	.st4{fill:none;stroke:#000000;stroke-linecap:round;stroke-linejoin:round;stroke-miterlimit:10;}
	.st5{fill:none;stroke:#000000;stroke-linecap:round;stroke-miterlimit:10;}
	.st6{fill:none;stroke:#000000;stroke-linecap:square;stroke-linejoin:round;}
	.st7{fill:none;stroke:#000000;stroke-width:0.9701;stroke-linejoin:round;stroke-miterlimit:10;}
	.st8{stroke:#000000;stroke-linejoin:round;stroke-miterlimit:10;}
	.st9{display:none;fill:none;stroke:#000000;stroke-miterlimit:10;}
	.st10{fill:none;stroke:#000000;stroke-width:1.0026;stroke-miterlimit:10;}
	.st11{fill:#C8C8C8;}
	.st12{fill:#B3B3B3;}
	.st13{fill:none;stroke:#000000;stroke-width:1.0305;stroke-linejoin:round;stroke-miterlimit:10;}
	.st14{fill:none;stroke:#000000;stroke-width:0.907;stroke-linejoin:round;stroke-miterlimit:10;}
	.st15{fill:#4C6586;}
	.st16{fill:#FFFFFF;}
	.st17{display:none;}
	.st18{display:inline;fill:none;stroke:#000000;stroke-linejoin:round;stroke-miterlimit:10;}
	.st19{fill:#333333;}
	.st20{fill:none;stroke:#FFFFFF;stroke-linejoin:round;stroke-miterlimit:10;}
	.st21{clip-path:url(#SVGID_3_);}
	.st22{clip-path:url(#SVGID_4_);fill:none;stroke:#FFFFFF;stroke-linejoin:round;stroke-miterlimit:10;}
	.st23{fill:none;stroke:#FFFFFF;stroke-linecap:round;stroke-linejoin:round;stroke-miterlimit:10;}
</style>
<g id="cat-pg">
	<g>
		<rect x="6.5" y="11.6" class="st1" width="3.5" height="2"/>
		<polyline class="st1" points="14.7,13.5 13,13.5 13,11.6 15.7,11.6 		"/>
		<rect x="6.5" y="15.5" class="st1" width="3.5" height="2"/>
		<polyline class="st1" points="15,17.4 13,17.4 13,15.5 14.6,15.5 		"/>
		<g>
			<polyline class="st0" points="19.5,9.2 19.5,6.2 17,6.2 			"/>
			<polyline class="st0" points="5.9,6.2 3.5,6.2 3.5,20.2 16.5,20.2 			"/>
			<line class="st0" x1="14" y1="6.2" x2="9.1" y2="6.2"/>
		</g>
		<rect x="6" y="3.7" class="st0" width="3" height="4"/>
		<rect x="14" y="3.7" class="st0" width="3" height="4"/>
		<g>
			<g>
				<path class="st2" d="M23,20.4v-0.2c0-0.1,0.1-0.3,0.2-0.4c1.2-1.2,2-3.3,2-4.8c0-2.2-1.8-4-4-4s-4,1.8-4,4c0,1.5,0.8,3.5,2,4.8
					c0.1,0.1,0.2,0.2,0.2,0.4v0.2c0,0.7-0.4,1.2-1.1,1.4c-2.6,0.7-4.4,2.2-4.4,4c0,1.3,3.3,2.4,7.4,2.4c4.1,0,7.4-1.1,7.4-2.4
					c0-1.8-1.8-3.3-4.4-4C23.4,21.7,23,21.1,23,20.4z"/>
			</g>
		</g>
	</g>
</g>
<g id="Guidelines">
</g>
</svg>
