<?xml version="1.0" encoding="utf-8"?>
<!-- Generator: Adobe Illustrator 25.0.0, SVG Export Plug-In . SVG Version: 6.00 Build 0)  -->
<svg version="1.1" xmlns="http://www.w3.org/2000/svg" xmlns:xlink="http://www.w3.org/1999/xlink" x="0px" y="0px" width="32px"
	 height="32px" viewBox="0 0 32 32" style="enable-background:new 0 0 32 32;" xml:space="preserve">
<style type="text/css">
	.st0{fill:none;stroke:#212121;stroke-linejoin:round;stroke-miterlimit:10;}
	.st1{fill:none;stroke:#212121;stroke-miterlimit:10;}
	.st2{fill:none;stroke:#212121;stroke-linecap:square;stroke-linejoin:round;stroke-miterlimit:10;}
	.st3{fill:none;stroke:#212121;stroke-linecap:round;stroke-linejoin:round;stroke-miterlimit:10;}
	.st4{fill:none;stroke:#212121;stroke-linecap:round;stroke-miterlimit:10;}
	.st5{fill:#212121;}
	.st6{fill:none;stroke:#212121;stroke-linecap:square;stroke-linejoin:round;}
	.st7{fill:none;stroke:#212121;stroke-width:0.9701;stroke-linejoin:round;stroke-miterlimit:10;}
	.st8{fill:#212121;stroke:#212121;stroke-linejoin:round;stroke-miterlimit:10;}
	.st9{display:none;fill:none;stroke:#212121;stroke-miterlimit:10;}
	.st10{fill:none;stroke:#212121;stroke-linecap:square;stroke-miterlimit:10;}
	.st11{fill:none;stroke:#212121;stroke-width:1.0026;stroke-miterlimit:10;}
	.st12{fill:#212121;stroke:#212121;stroke-miterlimit:10;}
	.st13{fill:none;stroke:#212121;stroke-width:1.0305;stroke-linejoin:round;stroke-miterlimit:10;}
	.st14{fill:none;stroke:#212121;stroke-width:0.907;stroke-linejoin:round;stroke-miterlimit:10;}
	.st15{fill:#FFFFFF;}
	.st16{fill:#333333;}
	.st17{fill:none;stroke:#FFFFFF;stroke-linejoin:round;stroke-miterlimit:10;}
	.st18{clip-path:url(#SVGID_3_);}
	.st19{clip-path:url(#SVGID_4_);fill:none;stroke:#FFFFFF;stroke-linejoin:round;stroke-miterlimit:10;}
	.st20{fill:none;stroke:#FFFFFF;stroke-linecap:round;stroke-linejoin:round;stroke-miterlimit:10;}
	.st21{fill:none;stroke:#333333;stroke-linejoin:round;stroke-miterlimit:10;}
</style>
<g id="cat-pg">
	<g>
		<path class="st0" d="M24,14.5V8.4c0-0.9-0.4-1.8-1-2.4l0,0c-0.6-0.6-1.5-1-2.4-1H7.4C6.5,5,5.6,5.4,5,6l0,0C4.4,6.6,4,7.5,4,8.4
			v8.7c0,0.6,0.2,1.1,0.5,1.6l0,0C5,19.5,5.9,20,6.9,20L7,20v5l4.2-5h3.4"/>
		<line class="st0" x1="7" y1="8.5" x2="21" y2="8.5"/>
		<line class="st0" x1="7" y1="11.5" x2="21" y2="11.5"/>
		<line class="st0" x1="7" y1="14.5" x2="12.5" y2="14.5"/>
		<path class="st0" d="M28.4,17.8L28.4,17.8c0.5,0.5,0.7,1.1,0.7,1.8v4.1c0,0.7-0.3,1.3-0.7,1.8l0,0c-0.5,0.5-1.2,0.8-1.9,0.8h-0.4
			L23,30.2v-3.9h-3.3c-0.7,0-1.4-0.3-1.9-0.8l0,0c-0.5-0.5-0.7-1.1-0.7-1.8v-4.1c0-0.7,0.3-1.3,0.7-1.8l0,0c0.5-0.5,1.2-0.8,1.9-0.8
			h6.8C27.2,17,27.9,17.3,28.4,17.8z"/>
		<line class="st0" x1="19.5" y1="20.4" x2="26.7" y2="20.4"/>
		<line class="st0" x1="19.5" y1="23" x2="23.6" y2="23"/>
	</g>
</g>
<g id="Guidelines">
</g>
</svg>
