<svg xmlns="http://www.w3.org/2000/svg" width="32" height="32" viewBox="0 0 32 32">
  <g id="Guidelines">
    <g>
      <path d="M20,10H12l.83-2.17a1.15,1.15,0,0,1,1-.83h4.3a1.15,1.15,0,0,1,1,.83Z" fill="none" stroke="#333" stroke-linejoin="round"/>
      <rect x="14.5" y="15.85" width="3" height="2" fill="none" stroke="#333" stroke-linejoin="round"/>
      <path d="M28,16v8.53a.51.51,0,0,1-.55.47H4.55A.51.51,0,0,1,4,24.53V16" fill="none" stroke="#333" stroke-linejoin="round"/>
      <path d="M14.45,16.85A19.85,19.85,0,0,1,12,16.6c-2.1-.38-8-3-8-3V11a1,1,0,0,1,1-1H27a1,1,0,0,1,1,1v2.6s-5.9,2.62-8,3a19.85,19.85,0,0,1-2.45.25" fill="none" stroke="#333" stroke-linejoin="round"/>
    </g>
  </g>
</svg>
