<svg xmlns="http://www.w3.org/2000/svg" width="32" height="32" viewBox="0 0 32 32">
  <g id="Guidelines">
    <path d="M24.87,22.51a3.21,3.21,0,0,0,.21-.3c.14-.21.28-.41.41-.63a.35.35,0,0,1,.05-.08c.05-.08.08-.16.13-.25s.22-.41.32-.63.13-.29.19-.44.14-.35.2-.53.12-.37.18-.55.09-.3.12-.45.1-.41.14-.62.05-.28.07-.42.05-.42.07-.62,0-.3,0-.45,0-.39,0-.58,0-.34,0-.51,0-.34,0-.51,0-.38-.07-.58-.05-.29-.08-.44-.08-.41-.13-.61l-.12-.41c-.06-.21-.12-.41-.19-.61s-.11-.29-.17-.43-.15-.36-.23-.53-.17-.34-.26-.51-.15-.28-.23-.42-.25-.4-.38-.6L25,9.57l-.05-.06a11,11,0,0,0-.87-1,.93.93,0,0,0-.14-.14,9.35,9.35,0,0,0-.8-.74c-.12-.1-.23-.2-.36-.29a6.87,6.87,0,0,0-.68-.48,4.81,4.81,0,0,0-.41-.27l-.13-.09-.39-.19c-.19-.1-.38-.22-.58-.31V6A10.83,10.83,0,0,0,16,5V16L9.58,7.05a10.82,10.82,0,0,0-3.11,3.44h0c0,.08-.08.16-.13.24s-.22.42-.32.63-.13.3-.19.44-.14.36-.2.54-.12.36-.18.55-.09.3-.12.45a6.21,6.21,0,0,0-.14.62c0,.14,0,.28-.07.42s-.05.41-.07.62,0,.3,0,.45,0,.39,0,.58,0,.34,0,.51,0,.34,0,.51,0,.38.07.57,0,.3.08.45.08.41.13.61l.12.41c.06.2.12.4.19.6s.11.29.17.44.15.35.23.53.17.34.26.51.15.28.23.42.25.4.38.6l.15.23.06.07c.15.2.31.4.47.59l.23.28.45.46.35.34.37.31.5.4.31.21c.2.14.41.28.62.4l.08.05.25.13.63.32.44.19.53.21.56.17.45.13.61.13.42.07L15,27l.44,0h1.09l.51,0,.58-.07.44-.08.62-.13.41-.11.6-.2.43-.17.54-.22.51-.27.42-.22c.2-.12.4-.26.59-.39a1.82,1.82,0,0,0,.23-.15l.08-.06c.2-.14.39-.3.58-.46l.29-.24c.16-.14.31-.3.46-.45l.33-.34c.11-.12.21-.25.32-.38S24.75,22.69,24.87,22.51Z" fill="none" stroke="#333" stroke-linejoin="round"/>
  </g>
</svg>
