<svg xmlns="http://www.w3.org/2000/svg" width="32" height="32" viewBox="0 0 32 32">
  <g id="Guidelines">
    <g>
      <g>
        <line x1="9.28" y1="21.29" x2="14.2" y2="20.42" fill="none" stroke="#333" stroke-linecap="round" stroke-linejoin="round"/>
        <line x1="9.63" y1="23.25" x2="17.51" y2="21.87" fill="none" stroke="#333" stroke-linecap="round" stroke-linejoin="round"/>
        <path d="M20.66,25.37,5.89,28a1.5,1.5,0,0,1-1.74-1.21l-.52-3a2.5,2.5,0,1,0-.87-4.92l-.52-3a1.5,1.5,0,0,1,1.22-1.73l2.07-.37" fill="none" stroke="#333" stroke-linecap="square" stroke-linejoin="round"/>
        <path d="M26.57,24.33l2-.35a1.5,1.5,0,0,0,1.22-1.74l-.52-2.95a2.5,2.5,0,1,1-.87-4.93l-.52-2.95a1.51,1.51,0,0,0-1.74-1.22l-2,.35" fill="none" stroke="#333" stroke-linecap="square" stroke-linejoin="round"/>
        <g>
          <path d="M21.56,10.49l-.92.16.57,3.24a.47.47,0,0,0,.46.39h.08a.46.46,0,0,0,.38-.54l-.57-3.24Z" fill="#333"/>
          <path d="M22.1,15.78H22a.47.47,0,0,0-.38.55l.6,3.42a.47.47,0,0,0,.46.38h.08a.48.48,0,0,0,.39-.55l-.61-3.41a.47.47,0,0,0-.46-.39Z" fill="#333"/>
          <path d="M23.13,21.64h-.08a.48.48,0,0,0-.38.55l.57,3.23.93-.16L23.6,22a.47.47,0,0,0-.47-.38Z" fill="#333"/>
        </g>
      </g>
      <g>
        <path d="M12.7,5a5,5,0,1,1-5,5,5,5,0,0,1,5-5m0-1a6,6,0,1,0,6,6,6,6,0,0,0-6-6Z" fill="#333"/>
        <path d="M12.71,6.36a2.33,2.33,0,0,0-1.6.54,2.31,2.31,0,0,0-.72,1.53l.9.11a1.85,1.85,0,0,1,.49-1.1,1.32,1.32,0,0,1,.94-.35,1.37,1.37,0,0,1,1,.38,1.21,1.21,0,0,1,.4.91A1.06,1.06,0,0,1,14,8.9a2.91,2.91,0,0,1-.6.64,7.78,7.78,0,0,0-.63.61,2,2,0,0,0-.34.57,2.42,2.42,0,0,0-.15.9v.26h.85a4,4,0,0,1,.07-.76,1.25,1.25,0,0,1,.2-.42,4,4,0,0,1,.56-.56,3.84,3.84,0,0,0,.86-1,1.81,1.81,0,0,0-.41-2.24,2.33,2.33,0,0,0-1.67-.58Zm.49,6.28h-1v1h1v-1Z" fill="#333"/>
      </g>
    </g>
  </g>
</svg>
