<svg xmlns="http://www.w3.org/2000/svg" width="32" height="32" viewBox="0 0 32 32">
  <g id="Guidelines">
    <g>
      <g>
        <line x1="9.28" y1="20.4" x2="14.2" y2="19.53" fill="none" stroke="#000" stroke-linecap="round" stroke-linejoin="round"/>
        <line x1="9.63" y1="22.37" x2="17.51" y2="20.98" fill="none" stroke="#000" stroke-linecap="round" stroke-linejoin="round"/>
        <path d="M20.66,24.48,5.89,27.08a1.5,1.5,0,0,1-1.74-1.21l-.52-3A2.5,2.5,0,1,0,2.76,18l-.52-3A1.5,1.5,0,0,1,3.46,13.3l2.07-.37" fill="none" stroke="#000" stroke-linecap="square" stroke-miterlimit="10"/>
        <path d="M26.57,23.44l2-.35a1.5,1.5,0,0,0,1.22-1.74l-.52-3a2.5,2.5,0,1,1-.87-4.92l-.52-3A1.52,1.52,0,0,0,26.11,9.3l-2,.35" fill="none" stroke="#000" stroke-linecap="square" stroke-miterlimit="10"/>
        <g>
          <path d="M21.56,9.6l-.92.16L21.21,13a.47.47,0,0,0,.46.39h.08a.46.46,0,0,0,.38-.54L21.56,9.6Z"/>
          <path d="M22.1,14.89H22a.46.46,0,0,0-.38.54l.6,3.42a.47.47,0,0,0,.46.39h.08a.48.48,0,0,0,.39-.55l-.61-3.41a.47.47,0,0,0-.46-.39Z"/>
          <path d="M23.13,20.75h-.08a.48.48,0,0,0-.38.55l.57,3.23.93-.16-.57-3.24a.47.47,0,0,0-.47-.38Z"/>
        </g>
      </g>
      <polyline points="6.65 10.28 10.95 14.59 20.65 4.89" fill="none" stroke="#000" stroke-linejoin="round"/>
    </g>
  </g>
</svg>
